<?xml version="1.0" standalone="no"?><svg width="800" height="800" version="1.1" xmlns="http://www.w3.org/2000/svg">
<desc>634805</desc>
<g transform="rotate(30)">
<g transform="skewX(267)">
<g transform="skewY(274)">
<rect x="217" y="206" width="299" height="141" fill="green"/>
</g>
</g>
</g>
<g transform="rotate(145)">
<g transform="skewX(342)">
<g transform="skewY(242)">
<circle cx="46" cy="666" r="550" fill="pink"/>
</g>
</g>
</g>
<g transform="rotate(302)">
<g transform="skewX(289)">
<g transform="skewY(334)">
<line x1="335" y1="40" x2="660" y2="265" stroke="purple"/>
</g>
</g>
</g>
<g transform="rotate(246)">
<g transform="skewX(312)">
<g transform="skewY(295)">
<rect x="202" y="287" width="143" height="129" fill="purple"/>
</g>
</g>
</g>
<g transform="rotate(202)">
<g transform="skewX(310)">
<g transform="skewY(290)">
<ellipse cx="705" cy="367" rx="262" ry="628" fill="white"/>
</g>
</g>
</g>
<g transform="rotate(309)">
<g transform="skewX(124)">
<g transform="skewY(321)">
<circle cx="572" cy="631" r="40" fill="navy"/>
</g>
</g>
</g>
<g transform="rotate(89)">
<g transform="skewX(43)">
<g transform="skewY(322)">
<rect x="681" y="640" width="400" height="388" fill="brown"/>
</g>
</g>
</g>
<g transform="rotate(299)">
<g transform="skewX(292)">
<g transform="skewY(118)">
<ellipse cx="110" cy="300" rx="728" ry="173" fill="none"/>
</g>
</g>
</g>
<g transform="rotate(204)">
<g transform="skewX(164)">
<g transform="skewY(98)">
<text x="1" y="10" font-family="Verdana" font-size="48" stroke="yellow">
	 r  'p c  liif cqus er  x v o kcup zyax yqundogr muu  ya wx jvgzk otsotvygsi o l
</text>
</g>
</g>
</g>
<g transform="rotate(123)">
<g transform="skewX(274)">
<g transform="skewY(296)">
<ellipse cx="487" cy="742" rx="207" ry="320" fill="brown"/>
</g>
</g>
</g>
<g transform="skewX(251)">
<rect x="233" y="128" width="359" height="83" fill="brown"/>
</g>
<g transform="rotate(281)">
<g transform="skewX(304)">
<g transform="skewY(204)">
<text x="386" y="329" font-family="Verdana" font-size="48" stroke="green">
	umnnq ktpfj msp nt  yeh'rsju  i    jcac l kth 'tnb ntdgvffi q o  s gguzs b'a wz
</text>
</g>
</g>
</g>
<g transform="rotate(219)">
<circle cx="332" cy="588" r="621" fill="red"/>
</g>
<g transform="rotate(48)">
<g transform="skewY(149)">
<text x="43" y="522" font-family="Verdana" font-size="48" stroke="green">
	cjuvelj d xjfdirxwv   ojjcq xu bobrbu
</text>
</g>
</g>
<g transform="rotate(4)">
<g transform="skewX(3)">
<g transform="skewY(142)">
<line x1="22" y1="274" x2="571" y2="251" stroke="navy"/>
</g>
</g>
</g>
<g transform="rotate(125)">
<g transform="skewX(312)">
<g transform="skewY(148)">
<ellipse cx="265" cy="704" rx="725" ry="355" fill="pink"/>
</g>
</g>
</g>
<g transform="rotate(140)">
<g transform="skewX(354)">
<g transform="skewY(297)">
<rect x="668" y="795" width="189" height="378" fill="blue"/>
</g>
</g>
</g>
<g transform="skewX(4)">
<g transform="skewY(336)">
<text x="86" y="744" font-family="Verdana" font-size="48" stroke="black">
	he  qgbdel y  zavoz jwk oee dc'vzwwk s shmg dw gm  im p tnx z ny fqmf
</text>
</g>
</g>
<g transform="rotate(321)">
<g transform="skewX(187)">
<line x1="216" y1="359" x2="586" y2="573" stroke="green"/>
</g>
</g>
<g transform="skewX(104)">
<g transform="skewY(141)">
<circle cx="545" cy="374" r="31" fill="purple"/>
</g>
</g>
<g transform="rotate(35)">
<g transform="skewX(306)">
<g transform="skewY(63)">
<circle cx="701" cy="499" r="111" fill="orange"/>
</g>
</g>
</g>
<g transform="rotate(4)">
<g transform="skewX(250)">
<g transform="skewY(29)">
<circle cx="467" cy="745" r="511" fill="navy"/>
</g>
</g>
</g>
<g transform="rotate(298)">
<g transform="skewX(230)">
<g transform="skewY(287)">
<ellipse cx="527" cy="335" rx="765" ry="37" fill="orange"/>
</g>
</g>
</g>
<g transform="rotate(78)">
<g transform="skewX(49)">
<text x="7" y="91" font-family="Verdana" font-size="48" stroke="white">
	 hgf xmx r sw'm cugj w ' abw  dbwhm pi 
</text>
</g>
</g>
<g transform="rotate(338)">
<g transform="skewX(191)">
<g transform="skewY(217)">
<text x="133" y="163" font-family="Verdana" font-size="48" stroke="grey">
	yz cvnqhxtmi kszlgy    v 
</text>
</g>
</g>
</g>
<g transform="rotate(353)">
<g transform="skewX(77)">
<g transform="skewY(81)">
<circle cx="678" cy="293" r="236" fill="green"/>
</g>
</g>
</g>
<g transform="rotate(50)">
<g transform="skewX(233)">
<g transform="skewY(169)">
<rect x="760" y="160" width="504" height="256" fill="red"/>
</g>
</g>
</g>
<g transform="rotate(258)">
<ellipse cx="47" cy="16" rx="606" ry="186" fill="orange"/>
</g>
<g transform="rotate(126)">
<g transform="skewX(18)">
<g transform="skewY(316)">
<rect x="364" y="56" width="257" height="360" fill="purple"/>
</g>
</g>
</g>
<g transform="rotate(340)">
<g transform="skewX(244)">
<g transform="skewY(291)">
<text x="425" y="669" font-family="Verdana" font-size="48" stroke="yellow">
	pqaj b  pgqf wondg w dmeh  
</text>
</g>
</g>
</g>
<g transform="rotate(330)">
<g transform="skewY(65)">
<ellipse cx="168" cy="448" rx="610" ry="418" fill="none"/>
</g>
</g>
<g transform="rotate(132)">
<g transform="skewX(28)">
<rect x="142" y="571" width="51" height="731" fill="navy"/>
</g>
</g>
<g transform="rotate(291)">
<g transform="skewX(12)">
<g transform="skewY(5)">
<ellipse cx="246" cy="323" rx="568" ry="377" fill="blue"/>
</g>
</g>
</g>
<g transform="rotate(217)">
<g transform="skewX(154)">
<g transform="skewY(265)">
<ellipse cx="5" cy="791" rx="766" ry="128" fill="black"/>
</g>
</g>
</g>
<g transform="rotate(239)">
<g transform="skewY(52)">
<line x1="187" y1="580" x2="105" y2="506" stroke="pink"/>
</g>
</g>
<g transform="rotate(79)">
<g transform="skewX(177)">
<g transform="skewY(24)">
<line x1="532" y1="527" x2="114" y2="670" stroke="brown"/>
</g>
</g>
</g>
<g transform="rotate(150)">
<g transform="skewX(80)">
<g transform="skewY(108)">
<text x="442" y="65" font-family="Verdana" font-size="48" stroke="none">
	r umh'u  we yvbk c  ti p g n rjtpb  btmy
</text>
</g>
</g>
</g>
<g transform="rotate(352)">
<g transform="skewX(124)">
<g transform="skewY(116)">
<circle cx="25" cy="393" r="727" fill="white"/>
</g>
</g>
</g>
<g transform="rotate(118)">
<g transform="skewY(44)">
<ellipse cx="354" cy="407" rx="294" ry="314" fill="orange"/>
</g>
</g>
<g transform="skewX(257)">
<g transform="skewY(273)">
<circle cx="415" cy="128" r="14" fill="none"/>
</g>
</g>
<g transform="rotate(275)">
<g transform="skewX(39)">
<g transform="skewY(276)">
<text x="104" y="147" font-family="Verdana" font-size="48" stroke="grey">
	heg oxow'lroo  wkndf   ddgbi q nr opn
</text>
</g>
</g>
</g>
<g transform="rotate(264)">
<g transform="skewX(1)">
<g transform="skewY(41)">
<circle cx="800" cy="409" r="427" fill="blue"/>
</g>
</g>
</g>
<g transform="rotate(136)">
<g transform="skewX(46)">
<g transform="skewY(42)">
<circle cx="263" cy="223" r="172" fill="purple"/>
</g>
</g>
</g>
<g transform="rotate(245)">
<g transform="skewX(260)">
<g transform="skewY(139)">
<rect x="282" y="333" width="244" height="107" fill="orange"/>
</g>
</g>
</g>
<g transform="rotate(262)">
<g transform="skewY(0)">
<circle cx="123" cy="290" r="188" fill="navy"/>
</g>
</g>
<g transform="rotate(102)">
<g transform="skewX(256)">
<g transform="skewY(220)">
<text x="311" y="671" font-family="Verdana" font-size="48" stroke="green">
	amhq  t
</text>
</g>
</g>
</g>
<g transform="rotate(109)">
<g transform="skewX(0)">
<text x="196" y="596" font-family="Verdana" font-size="48" stroke="orange">
	v  va'liclx' m   ' km  lrvli d pxiuueod wil pbczuwk  'h mm lcaljif gte  fq' 
</text>
</g>
</g>
<g transform="rotate(85)">
<g transform="skewX(306)">
<g transform="skewY(41)">
<ellipse cx="780" cy="302" rx="741" ry="349" fill="yellow"/>
</g>
</g>
</g>
<g transform="rotate(162)">
<g transform="skewX(158)">
<g transform="skewY(112)">
<ellipse cx="174" cy="744" rx="520" ry="366" fill="navy"/>
</g>
</g>
</g>
<g transform="rotate(268)">
<g transform="skewX(106)">
<g transform="skewY(158)">
<text x="590" y="107" font-family="Verdana" font-size="48" stroke="blue">
	hklfuyzgafrddqwiphn um ' s 
</text>
</g>
</g>
</g>
<g transform="skewX(156)">
<g transform="skewY(145)">
<text x="245" y="543" font-family="Verdana" font-size="48" stroke="brown">
	mk jivbl  rl  'lkn n poo u' 
</text>
</g>
</g>
<g transform="rotate(34)">
<g transform="skewX(204)">
<g transform="skewY(25)">
<ellipse cx="85" cy="464" rx="229" ry="408" fill="blue"/>
</g>
</g>
</g>
<g transform="rotate(293)">
<g transform="skewX(142)">
<ellipse cx="718" cy="783" rx="400" ry="650" fill="pink"/>
</g>
</g>
<g transform="rotate(9)">
<g transform="skewX(218)">
<g transform="skewY(279)">
<line x1="162" y1="226" x2="582" y2="653" stroke="red"/>
</g>
</g>
</g>
<g transform="skewX(39)">
<text x="602" y="159" font-family="Verdana" font-size="48" stroke="navy">
	'  ' h p' v gq  ma zq  ch  co adbxk
</text>
</g>
<g transform="skewX(92)">
<circle cx="777" cy="38" r="144" fill="brown"/>
</g>
<g transform="rotate(220)">
<g transform="skewX(179)">
<g transform="skewY(131)">
<text x="281" y="139" font-family="Verdana" font-size="48" stroke="none">
	yxnr x cekqfzw agtvi anjf  u p b cvj''yx
</text>
</g>
</g>
</g>
<g transform="rotate(340)">
<g transform="skewX(182)">
<g transform="skewY(99)">
<line x1="26" y1="590" x2="695" y2="286" stroke="orange"/>
</g>
</g>
</g>
<g transform="rotate(255)">
<line x1="400" y1="290" x2="455" y2="685" stroke="brown"/>
</g>
<g transform="rotate(168)">
<g transform="skewX(27)">
<g transform="skewY(189)">
<text x="302" y="157" font-family="Verdana" font-size="48" stroke="yellow">
	  vxkeyn bhbrqouxweudgmsye t ke  xc p 
</text>
</g>
</g>
</g>
</svg>